<svg width="146" height="32" viewBox="0 0 146 32" fill="none" xmlns="http://www.w3.org/2000/svg">
<rect width="146" height="32" rx="16" fill="black"/>
<path d="M20.028 12.648C20.556 12.648 20.976 12.728 21.288 12.888C21.664 13.08 21.952 13.344 22.152 13.68C22.36 14.016 22.464 14.392 22.464 14.808C22.464 15.2 22.36 15.564 22.152 15.9C21.944 16.228 21.66 16.488 21.3 16.68C21.732 16.832 22.096 17.096 22.392 17.472C22.688 17.848 22.836 18.272 22.836 18.744C22.836 19.16 22.728 19.544 22.512 19.896C22.304 20.24 22.024 20.512 21.672 20.712C21.496 20.808 21.3 20.88 21.084 20.928C20.868 20.976 20.58 21 20.22 21H16.524V12.648H20.028ZM24.9508 12.648H25.3948V17.808C25.3948 18.336 25.5268 18.824 25.7908 19.272C26.0548 19.72 26.4108 20.076 26.8588 20.34C27.3068 20.604 27.7948 20.736 28.3228 20.736C28.8508 20.736 29.3388 20.604 29.7868 20.34C30.2348 20.076 30.5908 19.72 30.8548 19.272C31.1188 18.824 31.2508 18.336 31.2508 17.808V12.648H31.6948V17.808C31.6948 18.416 31.5428 18.98 31.2388 19.5C30.9348 20.012 30.5228 20.42 30.0028 20.724C29.4908 21.028 28.9308 21.18 28.3228 21.18C27.7148 21.18 27.1508 21.028 26.6308 20.724C26.1188 20.42 25.7108 20.012 25.4068 19.5C25.1028 18.98 24.9508 18.416 24.9508 17.808V12.648ZM37.3856 17.004C36.7056 16.868 36.1496 16.72 35.7176 16.56C35.2936 16.392 34.9576 16.168 34.7096 15.888C34.4696 15.6 34.3496 15.232 34.3496 14.784C34.3496 14.32 34.4696 13.912 34.7096 13.56C34.9576 13.208 35.3016 12.936 35.7416 12.744C36.1896 12.552 36.7056 12.456 37.2896 12.456C37.8496 12.456 38.3616 12.576 38.8256 12.816C39.2976 13.048 39.6696 13.376 39.9416 13.8C40.2136 14.224 40.3496 14.708 40.3496 15.252H39.9056C39.9056 14.78 39.7896 14.364 39.5576 14.004C39.3256 13.644 39.0096 13.368 38.6096 13.176C38.2096 12.976 37.7656 12.876 37.2776 12.876C36.8456 12.876 36.4416 12.944 36.0656 13.08C35.6896 13.216 35.3816 13.424 35.1416 13.704C34.9096 13.984 34.7936 14.336 34.7936 14.76C34.7936 15.144 34.9056 15.452 35.1296 15.684C35.3536 15.908 35.6456 16.08 36.0056 16.2C36.3656 16.32 36.8696 16.448 37.5176 16.584C38.1736 16.72 38.6816 16.852 39.0416 16.98C39.4096 17.1 39.7176 17.304 39.9656 17.592C40.2216 17.88 40.3496 18.284 40.3496 18.804C40.3496 19.324 40.2096 19.764 39.9296 20.124C39.6576 20.476 39.2936 20.74 38.8376 20.916C38.3816 21.092 37.8856 21.18 37.3496 21.18C36.6856 21.18 36.1016 21.056 35.5976 20.808C35.0936 20.56 34.7056 20.212 34.4336 19.764C34.1696 19.308 34.0376 18.788 34.0376 18.204H34.4816C34.4816 18.716 34.5936 19.164 34.8176 19.548C35.0496 19.932 35.3816 20.232 35.8136 20.448C36.2456 20.656 36.7576 20.76 37.3496 20.76C38.0856 20.76 38.6936 20.584 39.1736 20.232C39.6616 19.88 39.9056 19.4 39.9056 18.792C39.9056 18.376 39.8016 18.056 39.5936 17.832C39.3856 17.608 39.1216 17.448 38.8016 17.352C38.4896 17.248 38.0176 17.132 37.3856 17.004ZM48.8004 12.648V13.092H46.3044V20.556H48.8004V21H43.3884V20.556H45.8724V13.092H43.3884V12.648H48.8004ZM51.7073 21V12.648H52.1753L58.0073 18.312V12.648H58.4513V21H58.0073V18.936L52.1513 13.224V21H51.7073ZM60.9741 12.648H66.8541V13.092H61.4181V16.476H66.1461V16.92H61.4181V20.556H66.8541V21H60.9741V12.648ZM72.9169 17.004C72.2369 16.868 71.6809 16.72 71.2489 16.56C70.8249 16.392 70.4889 16.168 70.2409 15.888C70.0009 15.6 69.8809 15.232 69.8809 14.784C69.8809 14.32 70.0009 13.912 70.2409 13.56C70.4889 13.208 70.8329 12.936 71.2729 12.744C71.7209 12.552 72.2369 12.456 72.8209 12.456C73.3809 12.456 73.8929 12.576 74.3569 12.816C74.8289 13.048 75.2009 13.376 75.4729 13.8C75.7449 14.224 75.8809 14.708 75.8809 15.252H75.4369C75.4369 14.78 75.3209 14.364 75.0889 14.004C74.8569 13.644 74.5409 13.368 74.1409 13.176C73.7409 12.976 73.2969 12.876 72.8089 12.876C72.3769 12.876 71.9729 12.944 71.5969 13.08C71.2209 13.216 70.9129 13.424 70.6729 13.704C70.4409 13.984 70.3249 14.336 70.3249 14.76C70.3249 15.144 70.4369 15.452 70.6609 15.684C70.8849 15.908 71.1769 16.08 71.5369 16.2C71.8969 16.32 72.4009 16.448 73.0489 16.584C73.7049 16.72 74.2129 16.852 74.5729 16.98C74.9409 17.1 75.2489 17.304 75.4969 17.592C75.7529 17.88 75.8809 18.284 75.8809 18.804C75.8809 19.324 75.7409 19.764 75.4609 20.124C75.1889 20.476 74.8249 20.74 74.3689 20.916C73.9129 21.092 73.4169 21.18 72.8809 21.18C72.2169 21.18 71.6329 21.056 71.1289 20.808C70.6249 20.56 70.2369 20.212 69.9649 19.764C69.7009 19.308 69.5689 18.788 69.5689 18.204H70.0129C70.0129 18.716 70.1249 19.164 70.3489 19.548C70.5809 19.932 70.9129 20.232 71.3449 20.448C71.7769 20.656 72.2889 20.76 72.8809 20.76C73.6169 20.76 74.2249 20.584 74.7049 20.232C75.1929 19.88 75.4369 19.4 75.4369 18.792C75.4369 18.376 75.3329 18.056 75.1249 17.832C74.9169 17.608 74.6529 17.448 74.3329 17.352C74.0209 17.248 73.5489 17.132 72.9169 17.004ZM81.7997 17.004C81.1197 16.868 80.5637 16.72 80.1317 16.56C79.7077 16.392 79.3717 16.168 79.1237 15.888C78.8837 15.6 78.7637 15.232 78.7637 14.784C78.7637 14.32 78.8837 13.912 79.1237 13.56C79.3717 13.208 79.7157 12.936 80.1557 12.744C80.6037 12.552 81.1197 12.456 81.7037 12.456C82.2637 12.456 82.7757 12.576 83.2397 12.816C83.7117 13.048 84.0837 13.376 84.3557 13.8C84.6277 14.224 84.7637 14.708 84.7637 15.252H84.3197C84.3197 14.78 84.2037 14.364 83.9717 14.004C83.7397 13.644 83.4237 13.368 83.0237 13.176C82.6237 12.976 82.1797 12.876 81.6917 12.876C81.2597 12.876 80.8557 12.944 80.4797 13.08C80.1037 13.216 79.7957 13.424 79.5557 13.704C79.3237 13.984 79.2077 14.336 79.2077 14.76C79.2077 15.144 79.3197 15.452 79.5437 15.684C79.7677 15.908 80.0597 16.08 80.4197 16.2C80.7797 16.32 81.2837 16.448 81.9317 16.584C82.5877 16.72 83.0957 16.852 83.4557 16.98C83.8237 17.1 84.1317 17.304 84.3797 17.592C84.6357 17.88 84.7637 18.284 84.7637 18.804C84.7637 19.324 84.6237 19.764 84.3437 20.124C84.0717 20.476 83.7077 20.74 83.2517 20.916C82.7957 21.092 82.2997 21.18 81.7637 21.18C81.0997 21.18 80.5157 21.056 80.0117 20.808C79.5077 20.56 79.1197 20.212 78.8477 19.764C78.5837 19.308 78.4517 18.788 78.4517 18.204H78.8957C78.8957 18.716 79.0077 19.164 79.2317 19.548C79.4637 19.932 79.7957 20.232 80.2277 20.448C80.6597 20.656 81.1717 20.76 81.7637 20.76C82.4997 20.76 83.1077 20.584 83.5877 20.232C84.0757 19.88 84.3197 19.4 84.3197 18.792C84.3197 18.376 84.2157 18.056 84.0077 17.832C83.7997 17.608 83.5357 17.448 83.2157 17.352C82.9037 17.248 82.4317 17.132 81.7997 17.004ZM87.2865 21V12.648H87.7305V15.012C88.5545 15.012 89.3345 15.172 90.0705 15.492C90.8065 15.804 91.4505 16.244 92.0025 16.812C92.5545 17.372 92.9785 18.016 93.2745 18.744V12.648H93.7185V21H93.2745C93.2745 20 93.0265 19.076 92.5305 18.228C92.0345 17.372 91.3585 16.696 90.5025 16.2C89.6545 15.704 88.7305 15.456 87.7305 15.456V21H87.2865ZM99.1573 12.648H99.6253L103.057 21H102.577L101.449 18.24H97.3333L96.1933 21H95.7253L99.1573 12.648ZM97.5133 17.808H101.269L99.3853 13.224L97.5133 17.808ZM105.496 12.648H111.724V13.092H105.94V16.596H110.62V17.04H105.94V21H105.496V12.648ZM114.271 12.648H120.151V13.092H114.715V16.476H119.443V16.92H114.715V20.556H120.151V21H114.271V12.648ZM122.77 21V12.648H123.238L129.07 18.312V12.648H129.514V21H129.07V18.936L123.214 13.224V21H122.77Z" fill="#00F666"/>
</svg>
